#!OML:ASF X:\für Bonn\!DataBase\2005_08_10_Bjorn_Final\c3d\bjorn.ASF
:FULLY-SPECIFIED
:DEGREES
98
root 0.567521 9.42521 3.51314 -178.387 -2.45176 -179.737
lowerback 31.2149 1.11028 8.25171
upperback 12.929 -0.0141906 1.75765
thorax -2.12057 -1.31399 -2.71706
lowerneck -21.9968 0.119719 2.38346
upperneck -8.38703 -2.37151 -3.82208
head 0.90312 -2.21111 -1.85411
rclavicle 2.22639e-014 4.29375e-014
rhumerus 73.4732 -0.806591 -66.9575
rradius 11.2275
rwrist 34.1192
rhand -14.5632 9.46016
rfingers 7.12502
rthumb 11.586 -20.1996
lclavicle 2.22639e-014 4.29375e-014
lhumerus 78.2603 -10.7301 73.083
lradius 7.97003
lwrist -48.5
lhand -24.2709 -7.68271
lfingers 7.12502
lthumb 2.21575 22.2855
rfemur 90.1749 -114.112 -165.693
rtibia 144.428
rfoot -43.592 45.0536
rtoes -33.628
lfemur -89.6917 40.8716 -23.0922
ltibia 146.61
lfoot -34.9405 -15.222
ltoes -34.6399
99
root 0.56225 9.62251 3.52465 -177.603 -2.54807 -179.918
lowerback 30.9394 1.06845 8.17818
upperback 12.7486 0.000308926 1.74453
thorax -2.21461 -1.2739 -2.69461
lowerneck -21.5818 0.181345 2.44544
upperneck -8.48509 -2.26775 -3.91459
head 0.805481 -2.14654 -1.87744
rclavicle 4.13472e-014 1.74931e-014
rhumerus 73.2841 -0.864822 -67.0933
rradius 11.1712
rwrist 34.3409
rhand -14.3957 9.43183
rfingers 7.12502
rthumb 11.7476 -20.2187
lclavicle 4.13472e-014 1.74931e-014
lhumerus 78.1484 -10.6903 73.3866
lradius 7.90746
lwrist -49.0979
lhand -24.1983 -7.83995
lfingers 7.12502
lthumb 2.28588 22.1275
rfemur 90.6368 -119.482 -165.104
rtibia 142.998
rfoot -41.329 42.5541
rtoes -33.7856
lfemur -89.0877 35.5214 -23.0416
ltibia 145.141
lfoot -33.607 -13.3818
ltoes -34.6648
100
root 0.557173 9.82564 3.53501 -176.83 -2.64536 -180.078
lowerback 30.655 1.02127 8.14873
upperback 12.586 0.0104749 1.72011
thorax -2.28052 -1.23531 -2.70898
lowerneck -21.2001 0.257274 2.54295
upperneck -8.60882 -2.1618 -4.02173
head 0.70495 -2.08562 -1.91276
rclavicle 3.18055e-015 -2.38542e-015
rhumerus 73.117 -0.975345 -67.3324
rradius 11.1084
rwrist 34.8404
rhand -14.3435 9.40409
rfingers 7.12502
rthumb 11.7979 -20.2436
lclavicle 3.18055e-015 -2.38542e-015
lhumerus 78.0961 -10.6612 73.6615
lradius 7.86924
lwrist -49.6703
lhand -23.9913 -8.02034
lfingers 7.12502
lthumb 2.48581 21.9449
rfemur 91.2841 -124.66 -164.727
rtibia 141.508
rfoot -39.5784 39.8619
rtoes -34.0002
lfemur -88.5408 30.8979 -22.9425
ltibia 143.63
lfoot -32.5677 -11.7075
ltoes -34.8502
101
root 0.551905 10.0325 3.54227 -176.071 -2.71859 -180.274
lowerback 30.3806 0.986681 8.10159
upperback 12.411 0.0364988 1.68013
thorax -2.36356 -1.18872 -2.73509
lowerneck -20.8357 0.313717 2.62055
upperneck -8.67797 -2.06726 -4.1005
head 0.625884 -2.02553 -1.93759
rclavicle 1.51076e-014 -3.18055e-015
rhumerus 72.8994 -1.1489 -67.7307
rradius 11.148
rwrist 35.5626
rhand -14.2479 9.42237
rfingers 7.12502
rthumb 11.89 -20.22
lclavicle 1.51076e-014 -3.18055e-015
lhumerus 77.982 -10.669 73.9446
lradius 7.94031
lwrist -50.1107
lhand -23.5573 -8.20128
lfingers 7.12502
lthumb 2.90486 21.7587
rfemur 92.0164 -129.488 -164.558
rtibia 139.97
rfoot -38.259 37.2185
rtoes -34.2224
lfemur -88.0023 26.9361 -22.8942
ltibia 142.09
lfoot -31.8573 -9.89546
ltoes -35.7913
102
root 0.546729 10.2421 3.54907 -175.324 -2.80013 -180.452
lowerback 30.1143 0.942952 8.06121
upperback 12.2392 0.0491026 1.64891
thorax -2.44638 -1.15061 -2.75106
lowerneck -20.5413 0.378243 2.6704
upperneck -8.74585 -1.96493 -4.16453
head 0.559164 -1.96456 -1.95391
rclavicle 4.77083e-015 2.8625e-014
rhumerus 72.7339 -1.33342 -68.2536
rradius 11.1941
rwrist 36.4319
rhand -14.262 9.45255
rfingers 7.12502
rthumb 11.8764 -20.1906
lclavicle 4.77083e-015 2.8625e-014
lhumerus 77.8708 -10.6311 74.2205
lradius 8.06315
lwrist -50.4011
lhand -23.1594 -8.4435
lfingers 7.12502
lthumb 3.28914 21.5109
rfemur 92.74 -133.949 -164.438
rtibia 138.411
rfoot -37.4316 34.4813
rtoes -34.6935
lfemur -87.5222 23.58 -22.8146
ltibia 140.528
lfoot -31.2437 -8.43963
ltoes -36.5665
103
root 0.541563 10.4551 3.55706 -174.623 -2.8886 -180.648
lowerback 29.9002 0.89834 8.02887
upperback 12.0829 0.0555807 1.61002
thorax -2.53359 -1.11907 -2.7779
lowerneck -20.3425 0.459401 2.76896
upperneck -8.77069 -1.85503 -4.27227
head 0.522869 -1.90447 -1.99626
rclavicle 1.11319e-014 1.59028e-015
rhumerus 72.6503 -1.50629 -68.6451
rradius 11.2424
rwrist 37.137
rhand -14.3521 9.44153
rfingers 7.12502
rthumb 11.7896 -20.2066
lclavicle 1.11319e-014 1.59028e-015
lhumerus 77.7649 -10.6099 74.4913
lradius 8.28507
lwrist -50.6051
lhand -22.7559 -8.57603
lfingers 7.12502
lthumb 3.67883 21.372
rfemur 93.5132 -138.003 -164.424
rtibia 136.802
rfoot -36.7149 31.9794
rtoes -34.8771
lfemur -87.0047 20.5775 -22.7221
ltibia 138.912
lfoot -30.6212 -7.20919
ltoes -37.1256
104
root 0.536642 10.6669 3.56611 -173.952 -2.97457 -180.842
lowerback 29.6911 0.848748 7.99474
upperback 11.9215 0.0554749 1.5754
thorax -2.62893 -1.09185 -2.79682
lowerneck -20.1334 0.531169 2.81757
upperneck -8.79804 -1.74615 -4.34937
head 0.484218 -1.84251 -2.01935
rclavicle -3.10104e-014 -1.98785e-014
rhumerus 72.5501 -1.6295 -68.9016
rradius 11.3884
rwrist 37.6792
rhand -14.5257 9.45592
rfingers 7.12502
rthumb 11.6221 -20.2018
lclavicle -3.10104e-014 -1.98785e-014
lhumerus 77.6222 -10.5661 74.7687
lradius 8.54068
lwrist -50.6616
lhand -22.5302 -8.63215
lfingers 7.12502
lthumb 3.89678 21.312
rfemur 94.2768 -141.581 -164.456
rtibia 135.174
rfoot -36.1532 29.7434
rtoes -34.8867
lfemur -86.5154 18.0363 -22.6503
ltibia 137.303
lfoot -30.1104 -6.10051
ltoes -37.8224
105
root 0.531706 10.8802 3.57525 -173.319 -3.05846 -181.035
lowerback 29.4305 0.816419 7.9315
upperback 11.7879 0.0563504 1.56658
thorax -2.66959 -1.06661 -2.77184
lowerneck -19.8197 0.60883 2.88279
upperneck -8.88447 -1.63246 -4.46536
head 0.409265 -1.77805 -2.05554
rclavicle 2.38542e-015 -6.36111e-015
rhumerus 72.5288 -1.74796 -69.1863
rradius 11.5507
rwrist 38.2303
rhand -14.7242 9.48829
rfingers 7.12502
rthumb 11.4307 -20.1801
lclavicle 2.38542e-015 -6.36111e-015
lhumerus 77.4319 -10.5113 75.0744
lradius 8.90269
lwrist -50.677
lhand -22.4946 -8.61913
lfingers 7.12502
lthumb 3.93111 21.3244
rfemur 95.0438 -144.769 -164.518
rtibia 133.519
rfoot -35.8213 27.5876
rtoes -35.1025
lfemur -86.0145 15.8044 -22.6154
ltibia 135.662
lfoot -29.5735 -5.07054
ltoes -38.4727
106
root 0.527249 11.0947 3.58518 -172.745 -3.14224 -181.231
lowerback 29.1648 0.788085 7.8782
upperback 11.6856 0.0512874 1.54343
thorax -2.6709 -1.04566 -2.76709
lowerneck -19.5036 0.695491 2.9848
upperneck -8.9873 -1.51585 -4.57598
head 0.328925 -1.71343 -2.09664
rclavicle -1.19271e-014 -1.98785e-014
rhumerus 72.525 -1.84951 -69.3148
rradius 11.7616
rwrist 38.5581
rhand -14.9275 9.47378
rfingers 7.12502
rthumb 11.2347 -20.2054
lclavicle -1.19271e-014 -1.98785e-014
lhumerus 77.3182 -10.4319 75.3454
lradius 9.15972
lwrist -50.5972
lhand -22.7105 -8.59593
lfingers 7.12502
lthumb 3.72263 21.3513
rfemur 95.8462 -147.58 -164.617
rtibia 131.837
rfoot -35.7063 25.4679
rtoes -35.5684
lfemur -85.4515 13.8539 -22.5928
ltibia 133.988
lfoot -29.0395 -4.19226
ltoes -38.9113
107
root 0.52293 11.315 3.5935 -172.217 -3.20581 -181.419
lowerback 28.9042 0.770777 7.82399
upperback 11.5913 0.0559616 1.52202
thorax -2.66363 -1.02142 -2.76282
lowerneck -19.1932 0.783505 3.13031
upperneck -9.09337 -1.40742 -4.70683
head 0.248543 -1.65492 -2.15357
rclavicle -1.90833e-014 -1.11319e-014
rhumerus 72.5444 -1.93864 -69.4142
rradius 11.9792
rwrist 38.7708
rhand -15.0559 9.42484
rfingers 7.12502
rthumb 11.1108 -20.261
lclavicle -1.90833e-014 -1.11319e-014
lhumerus 77.2993 -10.32 75.6119
lradius 9.2127
lwrist -50.5445
lhand -23.1435 -8.50431
lfingers 7.12502
lthumb 3.30451 21.4498
rfemur 96.7278 -150.121 -164.761
rtibia 130.089
rfoot -35.6426 23.5234
rtoes -36.0119
lfemur -84.795 12.1771 -22.5817
ltibia 132.261
lfoot -28.514 -3.53366
ltoes -39.023
108
root 0.518476 11.5402 3.60177 -171.67 -3.28586 -181.612
lowerback 28.6017 0.749953 7.7862
upperback 11.4997 0.058653 1.5008
thorax -2.63288 -0.995964 -2.76748
lowerneck -19.0171 0.874998 3.28303
upperneck -9.11724 -1.29674 -4.85052
head 0.217666 -1.59758 -2.22004
rclavicle -1.11319e-014 -1.43125e-014
rhumerus 72.595 -2.03264 -69.4831
rradius 12.1923
rwrist 38.9491
rhand -15.1325 9.37245
rfingers 7.12502
rthumb 11.037 -20.3174
lclavicle -1.11319e-014 -1.43125e-014
lhumerus 77.3919 -10.1701 75.8772
lradius 9.10882
lwrist -50.469
lhand -23.7852 -8.46105
lfingers 7.12502
lthumb 2.68482 21.5018
rfemur 97.5778 -152.398 -164.913
rtibia 128.286
rfoot -35.5132 21.8016
rtoes -36.2713
lfemur -84.1419 10.6283 -22.5992
ltibia 130.464
lfoot -27.9599 -3.04847
ltoes -38.7293
109
root 0.514029 11.7717 3.60879 -171.134 -3.37827 -181.786
lowerback 28.3189 0.708717 7.77839
upperback 11.3892 0.0490721 1.47755
thorax -2.63186 -0.975877 -2.78732
lowerneck -18.9216 0.972942 3.43183
upperneck -9.04543 -1.1692 -5.00693
head 0.232816 -1.5302 -2.29211
rclavicle 3.73715e-014 3.73715e-014
rhumerus 72.641 -2.10867 -69.5718
rradius 12.4009
rwrist 39.1832
rhand -15.0783 9.36025
rfingers 7.12502
rthumb 11.0892 -20.3268
lclavicle 3.73715e-014 3.73715e-014
lhumerus 77.4809 -9.98703 76.1342
lradius 8.97282
lwrist -50.4348
lhand -24.4345 -8.35337
lfingers 7.12502
lthumb 2.05775 21.6165
rfemur 98.4764 -154.44 -165.044
rtibia 126.407
rfoot -35.4521 20.1147
rtoes -36.7439
lfemur -83.4371 9.23749 -22.6038
ltibia 128.587
lfoot -27.3738 -2.83274
ltoes -37.9317
